<mxfile host="app.diagrams.net" agent="Mozilla/5.0 (Windows NT 10.0; Win64; x64) AppleWebKit/537.36 (KHTML, like Gecko) Chrome/135.0.0.0 Safari/537.36" version="26.2.14" pages="2">
  <diagram name="Halaman-1" id="E6UMohVB4dyuUoHPOl_D">
    <mxGraphModel dx="751" dy="415" grid="1" gridSize="10" guides="1" tooltips="1" connect="1" arrows="1" fold="1" page="1" pageScale="1" pageWidth="827" pageHeight="1169" math="0" shadow="0">
      <root>
        <mxCell id="0" />
        <mxCell id="1" parent="0" />
        <mxCell id="K4pvUWN7fDzptfMBSgQ_-5" value="" style="group;strokeWidth=2;opacity=0;" parent="1" vertex="1" connectable="0">
          <mxGeometry x="277" y="290" width="100" height="80" as="geometry" />
        </mxCell>
        <mxCell id="_-CRQ1PkJ-tYDOM7KZ5m-11" value="" style="verticalLabelPosition=bottom;shadow=0;dashed=0;align=center;html=1;verticalAlign=top;shape=mxgraph.electrical.logic_gates.t_type_flip-flop;gradientColor=none;labelBackgroundColor=none;strokeWidth=2;" parent="K4pvUWN7fDzptfMBSgQ_-5" vertex="1">
          <mxGeometry width="100" height="80" as="geometry" />
        </mxCell>
        <mxCell id="K4pvUWN7fDzptfMBSgQ_-2" value="" style="rounded=0;whiteSpace=wrap;html=1;strokeWidth=2;perimeterSpacing=0;fillColor=default;gradientColor=none;strokeColor=none;" parent="K4pvUWN7fDzptfMBSgQ_-5" vertex="1">
          <mxGeometry x="70" y="53.610000000000014" width="8.995" height="10" as="geometry" />
        </mxCell>
        <mxCell id="K4pvUWN7fDzptfMBSgQ_-6" value="" style="rounded=0;whiteSpace=wrap;html=1;strokeWidth=2;perimeterSpacing=0;fillColor=default;gradientColor=none;strokeColor=none;" parent="K4pvUWN7fDzptfMBSgQ_-5" vertex="1">
          <mxGeometry x="70" y="14" width="8.995" height="10" as="geometry" />
        </mxCell>
        <mxCell id="K4pvUWN7fDzptfMBSgQ_-7" value="" style="rounded=0;whiteSpace=wrap;html=1;strokeWidth=2;perimeterSpacing=0;fillColor=default;gradientColor=none;strokeColor=none;" parent="K4pvUWN7fDzptfMBSgQ_-5" vertex="1">
          <mxGeometry x="21" y="14" width="8.995" height="10" as="geometry" />
        </mxCell>
        <mxCell id="K4pvUWN7fDzptfMBSgQ_-8" value="" style="group;strokeWidth=2;opacity=0;" parent="1" vertex="1" connectable="0">
          <mxGeometry x="460" y="290" width="100" height="80" as="geometry" />
        </mxCell>
        <mxCell id="K4pvUWN7fDzptfMBSgQ_-9" value="" style="verticalLabelPosition=bottom;shadow=0;dashed=0;align=center;html=1;verticalAlign=top;shape=mxgraph.electrical.logic_gates.t_type_flip-flop;gradientColor=none;labelBackgroundColor=none;strokeWidth=2;" parent="K4pvUWN7fDzptfMBSgQ_-8" vertex="1">
          <mxGeometry width="100" height="80" as="geometry" />
        </mxCell>
        <mxCell id="K4pvUWN7fDzptfMBSgQ_-10" value="" style="rounded=0;whiteSpace=wrap;html=1;strokeWidth=2;perimeterSpacing=0;fillColor=default;gradientColor=none;strokeColor=none;" parent="K4pvUWN7fDzptfMBSgQ_-8" vertex="1">
          <mxGeometry x="70" y="53.610000000000014" width="8.995" height="10" as="geometry" />
        </mxCell>
        <mxCell id="K4pvUWN7fDzptfMBSgQ_-11" value="" style="rounded=0;whiteSpace=wrap;html=1;strokeWidth=2;perimeterSpacing=0;fillColor=default;gradientColor=none;strokeColor=none;" parent="K4pvUWN7fDzptfMBSgQ_-8" vertex="1">
          <mxGeometry x="70" y="14" width="8.995" height="10" as="geometry" />
        </mxCell>
        <mxCell id="K4pvUWN7fDzptfMBSgQ_-12" value="" style="rounded=0;whiteSpace=wrap;html=1;strokeWidth=2;perimeterSpacing=0;fillColor=default;gradientColor=none;strokeColor=none;" parent="K4pvUWN7fDzptfMBSgQ_-8" vertex="1">
          <mxGeometry x="21" y="14" width="8.995" height="10" as="geometry" />
        </mxCell>
        <mxCell id="K4pvUWN7fDzptfMBSgQ_-13" value="" style="group;strokeWidth=2;opacity=0;" parent="1" vertex="1" connectable="0">
          <mxGeometry x="100" y="290" width="100" height="80" as="geometry" />
        </mxCell>
        <mxCell id="K4pvUWN7fDzptfMBSgQ_-14" value="" style="verticalLabelPosition=bottom;shadow=0;dashed=0;align=center;html=1;verticalAlign=top;shape=mxgraph.electrical.logic_gates.t_type_flip-flop;gradientColor=none;labelBackgroundColor=none;strokeWidth=2;" parent="K4pvUWN7fDzptfMBSgQ_-13" vertex="1">
          <mxGeometry width="100" height="80" as="geometry" />
        </mxCell>
        <mxCell id="K4pvUWN7fDzptfMBSgQ_-15" value="" style="rounded=0;whiteSpace=wrap;html=1;strokeWidth=2;perimeterSpacing=0;fillColor=default;gradientColor=none;strokeColor=none;" parent="K4pvUWN7fDzptfMBSgQ_-13" vertex="1">
          <mxGeometry x="70" y="53.610000000000014" width="8.995" height="10" as="geometry" />
        </mxCell>
        <mxCell id="K4pvUWN7fDzptfMBSgQ_-16" value="" style="rounded=0;whiteSpace=wrap;html=1;strokeWidth=2;perimeterSpacing=0;fillColor=default;gradientColor=none;strokeColor=none;" parent="K4pvUWN7fDzptfMBSgQ_-13" vertex="1">
          <mxGeometry x="70" y="14" width="8.995" height="10" as="geometry" />
        </mxCell>
        <mxCell id="K4pvUWN7fDzptfMBSgQ_-17" value="" style="rounded=0;whiteSpace=wrap;html=1;strokeWidth=2;perimeterSpacing=0;fillColor=default;gradientColor=none;strokeColor=none;" parent="K4pvUWN7fDzptfMBSgQ_-13" vertex="1">
          <mxGeometry x="21" y="14" width="8.995" height="10" as="geometry" />
        </mxCell>
        <mxCell id="K4pvUWN7fDzptfMBSgQ_-23" value="" style="group;strokeWidth=2;" parent="1" vertex="1" connectable="0">
          <mxGeometry x="40" y="400" width="20" height="20" as="geometry" />
        </mxCell>
        <mxCell id="K4pvUWN7fDzptfMBSgQ_-21" value="" style="rounded=0;whiteSpace=wrap;html=1;strokeWidth=2;" parent="K4pvUWN7fDzptfMBSgQ_-23" vertex="1">
          <mxGeometry width="20" height="20" as="geometry" />
        </mxCell>
        <mxCell id="K4pvUWN7fDzptfMBSgQ_-22" value="" style="pointerEvents=1;verticalLabelPosition=bottom;shadow=0;dashed=0;align=center;html=1;verticalAlign=top;shape=mxgraph.electrical.waveforms.square_wave;strokeWidth=2;" parent="K4pvUWN7fDzptfMBSgQ_-23" vertex="1">
          <mxGeometry x="5" y="5" width="10" height="10" as="geometry" />
        </mxCell>
        <mxCell id="X7iax-zDUWtmExluDRuu-1" style="edgeStyle=orthogonalEdgeStyle;rounded=0;orthogonalLoop=1;jettySize=auto;html=1;exitX=1;exitY=0.5;exitDx=0;exitDy=0;entryX=0;entryY=0.75;entryDx=0;entryDy=0;entryPerimeter=0;endArrow=none;startFill=0;strokeWidth=2;" edge="1" parent="1" source="K4pvUWN7fDzptfMBSgQ_-21" target="K4pvUWN7fDzptfMBSgQ_-14">
          <mxGeometry relative="1" as="geometry" />
        </mxCell>
        <mxCell id="X7iax-zDUWtmExluDRuu-2" style="edgeStyle=orthogonalEdgeStyle;rounded=0;orthogonalLoop=1;jettySize=auto;html=1;exitX=1;exitY=0.5;exitDx=0;exitDy=0;entryX=0;entryY=0.75;entryDx=0;entryDy=0;entryPerimeter=0;endArrow=none;startFill=0;strokeWidth=2;" edge="1" parent="1" source="K4pvUWN7fDzptfMBSgQ_-21" target="_-CRQ1PkJ-tYDOM7KZ5m-11">
          <mxGeometry relative="1" as="geometry">
            <Array as="points">
              <mxPoint x="260" y="410" />
              <mxPoint x="260" y="350" />
            </Array>
          </mxGeometry>
        </mxCell>
        <mxCell id="X7iax-zDUWtmExluDRuu-3" style="edgeStyle=orthogonalEdgeStyle;rounded=0;orthogonalLoop=1;jettySize=auto;html=1;exitX=1;exitY=0.5;exitDx=0;exitDy=0;entryX=0;entryY=0.75;entryDx=0;entryDy=0;entryPerimeter=0;endArrow=none;startFill=0;strokeWidth=2;" edge="1" parent="1" source="K4pvUWN7fDzptfMBSgQ_-21" target="K4pvUWN7fDzptfMBSgQ_-9">
          <mxGeometry relative="1" as="geometry">
            <Array as="points">
              <mxPoint x="440" y="410" />
              <mxPoint x="440" y="350" />
            </Array>
          </mxGeometry>
        </mxCell>
        <mxCell id="X7iax-zDUWtmExluDRuu-4" style="edgeStyle=orthogonalEdgeStyle;rounded=0;orthogonalLoop=1;jettySize=auto;html=1;exitX=1;exitY=0.25;exitDx=0;exitDy=0;exitPerimeter=0;entryX=0;entryY=0.25;entryDx=0;entryDy=0;entryPerimeter=0;endArrow=none;startFill=0;strokeWidth=2;" edge="1" parent="1" source="K4pvUWN7fDzptfMBSgQ_-14" target="_-CRQ1PkJ-tYDOM7KZ5m-11">
          <mxGeometry relative="1" as="geometry" />
        </mxCell>
        <mxCell id="X7iax-zDUWtmExluDRuu-5" value="" style="verticalLabelPosition=bottom;shadow=0;dashed=0;align=center;html=1;verticalAlign=top;shape=mxgraph.electrical.logic_gates.logic_gate;operation=and;strokeWidth=2;" vertex="1" parent="1">
          <mxGeometry x="400" y="296" width="50" height="28" as="geometry" />
        </mxCell>
        <mxCell id="X7iax-zDUWtmExluDRuu-6" style="edgeStyle=orthogonalEdgeStyle;rounded=0;orthogonalLoop=1;jettySize=auto;html=1;exitX=1;exitY=0.5;exitDx=0;exitDy=0;exitPerimeter=0;entryX=0;entryY=0.25;entryDx=0;entryDy=0;entryPerimeter=0;endArrow=none;startFill=0;strokeWidth=2;" edge="1" parent="1" source="X7iax-zDUWtmExluDRuu-5" target="K4pvUWN7fDzptfMBSgQ_-9">
          <mxGeometry relative="1" as="geometry" />
        </mxCell>
        <mxCell id="X7iax-zDUWtmExluDRuu-8" style="edgeStyle=orthogonalEdgeStyle;rounded=0;orthogonalLoop=1;jettySize=auto;html=1;exitX=1;exitY=0.25;exitDx=0;exitDy=0;exitPerimeter=0;endArrow=none;startFill=0;strokeWidth=2;entryX=0;entryY=0.25;entryDx=0;entryDy=0;entryPerimeter=0;" edge="1" parent="1" source="K4pvUWN7fDzptfMBSgQ_-14" target="X7iax-zDUWtmExluDRuu-5">
          <mxGeometry relative="1" as="geometry">
            <mxPoint x="400" y="306" as="targetPoint" />
            <Array as="points">
              <mxPoint x="200" y="260" />
              <mxPoint x="390" y="260" />
              <mxPoint x="390" y="303" />
            </Array>
          </mxGeometry>
        </mxCell>
        <mxCell id="X7iax-zDUWtmExluDRuu-9" value="" style="group;strokeWidth=2;" vertex="1" connectable="0" parent="1">
          <mxGeometry x="40" y="300" width="20" height="20" as="geometry" />
        </mxCell>
        <mxCell id="X7iax-zDUWtmExluDRuu-10" value="1" style="rounded=0;whiteSpace=wrap;html=1;strokeWidth=2;" vertex="1" parent="X7iax-zDUWtmExluDRuu-9">
          <mxGeometry width="20" height="20" as="geometry" />
        </mxCell>
        <mxCell id="X7iax-zDUWtmExluDRuu-12" style="edgeStyle=orthogonalEdgeStyle;rounded=0;orthogonalLoop=1;jettySize=auto;html=1;exitX=1;exitY=0.5;exitDx=0;exitDy=0;entryX=0;entryY=0.25;entryDx=0;entryDy=0;entryPerimeter=0;endArrow=none;startFill=0;strokeWidth=2;" edge="1" parent="1" source="X7iax-zDUWtmExluDRuu-10" target="K4pvUWN7fDzptfMBSgQ_-14">
          <mxGeometry relative="1" as="geometry" />
        </mxCell>
        <mxCell id="X7iax-zDUWtmExluDRuu-16" style="edgeStyle=orthogonalEdgeStyle;rounded=0;orthogonalLoop=1;jettySize=auto;html=1;exitX=1;exitY=0.25;exitDx=0;exitDy=0;exitPerimeter=0;entryX=0;entryY=0.75;entryDx=0;entryDy=0;entryPerimeter=0;endArrow=none;startFill=0;strokeWidth=2;" edge="1" parent="1" source="_-CRQ1PkJ-tYDOM7KZ5m-11" target="X7iax-zDUWtmExluDRuu-5">
          <mxGeometry relative="1" as="geometry">
            <Array as="points">
              <mxPoint x="390" y="310" />
              <mxPoint x="390" y="317" />
            </Array>
          </mxGeometry>
        </mxCell>
      </root>
    </mxGraphModel>
  </diagram>
  <diagram id="-1bKqoWYuK2iIKqJgB97" name="Halaman-2">
    <mxGraphModel dx="594" dy="329" grid="1" gridSize="10" guides="1" tooltips="1" connect="1" arrows="1" fold="1" page="1" pageScale="1" pageWidth="827" pageHeight="1169" math="0" shadow="0">
      <root>
        <mxCell id="0" />
        <mxCell id="1" parent="0" />
        <mxCell id="rNCbH9uXFi6r2xRvdt5K-1" value="" style="group;strokeWidth=2;opacity=0;" vertex="1" connectable="0" parent="1">
          <mxGeometry x="391" y="300" width="100" height="80" as="geometry" />
        </mxCell>
        <mxCell id="rNCbH9uXFi6r2xRvdt5K-2" value="" style="verticalLabelPosition=bottom;shadow=0;dashed=0;align=center;html=1;verticalAlign=top;shape=mxgraph.electrical.logic_gates.t_type_flip-flop;gradientColor=none;labelBackgroundColor=none;strokeWidth=2;" vertex="1" parent="rNCbH9uXFi6r2xRvdt5K-1">
          <mxGeometry width="100" height="80" as="geometry" />
        </mxCell>
        <mxCell id="rNCbH9uXFi6r2xRvdt5K-3" value="" style="rounded=0;whiteSpace=wrap;html=1;strokeWidth=2;perimeterSpacing=0;fillColor=default;gradientColor=none;strokeColor=none;" vertex="1" parent="rNCbH9uXFi6r2xRvdt5K-1">
          <mxGeometry x="70" y="53.610000000000014" width="8.995" height="10" as="geometry" />
        </mxCell>
        <mxCell id="rNCbH9uXFi6r2xRvdt5K-4" value="" style="rounded=0;whiteSpace=wrap;html=1;strokeWidth=2;perimeterSpacing=0;fillColor=default;gradientColor=none;strokeColor=none;" vertex="1" parent="rNCbH9uXFi6r2xRvdt5K-1">
          <mxGeometry x="70" y="14" width="8.995" height="10" as="geometry" />
        </mxCell>
        <mxCell id="rNCbH9uXFi6r2xRvdt5K-5" value="" style="rounded=0;whiteSpace=wrap;html=1;strokeWidth=2;perimeterSpacing=0;fillColor=default;gradientColor=none;strokeColor=none;" vertex="1" parent="rNCbH9uXFi6r2xRvdt5K-1">
          <mxGeometry x="21" y="14" width="8.995" height="10" as="geometry" />
        </mxCell>
        <mxCell id="rNCbH9uXFi6r2xRvdt5K-6" value="" style="group;strokeWidth=2;opacity=0;" vertex="1" connectable="0" parent="1">
          <mxGeometry x="574" y="300" width="100" height="80" as="geometry" />
        </mxCell>
        <mxCell id="rNCbH9uXFi6r2xRvdt5K-7" value="" style="verticalLabelPosition=bottom;shadow=0;dashed=0;align=center;html=1;verticalAlign=top;shape=mxgraph.electrical.logic_gates.t_type_flip-flop;gradientColor=none;labelBackgroundColor=none;strokeWidth=2;" vertex="1" parent="rNCbH9uXFi6r2xRvdt5K-6">
          <mxGeometry width="100" height="80" as="geometry" />
        </mxCell>
        <mxCell id="rNCbH9uXFi6r2xRvdt5K-8" value="" style="rounded=0;whiteSpace=wrap;html=1;strokeWidth=2;perimeterSpacing=0;fillColor=default;gradientColor=none;strokeColor=none;" vertex="1" parent="rNCbH9uXFi6r2xRvdt5K-6">
          <mxGeometry x="70" y="53.610000000000014" width="8.995" height="10" as="geometry" />
        </mxCell>
        <mxCell id="rNCbH9uXFi6r2xRvdt5K-9" value="" style="rounded=0;whiteSpace=wrap;html=1;strokeWidth=2;perimeterSpacing=0;fillColor=default;gradientColor=none;strokeColor=none;" vertex="1" parent="rNCbH9uXFi6r2xRvdt5K-6">
          <mxGeometry x="70" y="14" width="8.995" height="10" as="geometry" />
        </mxCell>
        <mxCell id="rNCbH9uXFi6r2xRvdt5K-10" value="" style="rounded=0;whiteSpace=wrap;html=1;strokeWidth=2;perimeterSpacing=0;fillColor=default;gradientColor=none;strokeColor=none;" vertex="1" parent="rNCbH9uXFi6r2xRvdt5K-6">
          <mxGeometry x="21" y="14" width="8.995" height="10" as="geometry" />
        </mxCell>
        <mxCell id="rNCbH9uXFi6r2xRvdt5K-11" value="" style="group;strokeWidth=2;opacity=0;" vertex="1" connectable="0" parent="1">
          <mxGeometry x="214" y="300" width="100" height="80" as="geometry" />
        </mxCell>
        <mxCell id="rNCbH9uXFi6r2xRvdt5K-12" value="" style="verticalLabelPosition=bottom;shadow=0;dashed=0;align=center;html=1;verticalAlign=top;shape=mxgraph.electrical.logic_gates.t_type_flip-flop;gradientColor=none;labelBackgroundColor=none;strokeWidth=2;" vertex="1" parent="rNCbH9uXFi6r2xRvdt5K-11">
          <mxGeometry width="100" height="80" as="geometry" />
        </mxCell>
        <mxCell id="rNCbH9uXFi6r2xRvdt5K-13" value="" style="rounded=0;whiteSpace=wrap;html=1;strokeWidth=2;perimeterSpacing=0;fillColor=default;gradientColor=none;strokeColor=none;" vertex="1" parent="rNCbH9uXFi6r2xRvdt5K-11">
          <mxGeometry x="70" y="53.610000000000014" width="8.995" height="10" as="geometry" />
        </mxCell>
        <mxCell id="rNCbH9uXFi6r2xRvdt5K-14" value="" style="rounded=0;whiteSpace=wrap;html=1;strokeWidth=2;perimeterSpacing=0;fillColor=default;gradientColor=none;strokeColor=none;" vertex="1" parent="rNCbH9uXFi6r2xRvdt5K-11">
          <mxGeometry x="70" y="14" width="8.995" height="10" as="geometry" />
        </mxCell>
        <mxCell id="rNCbH9uXFi6r2xRvdt5K-15" value="" style="rounded=0;whiteSpace=wrap;html=1;strokeWidth=2;perimeterSpacing=0;fillColor=default;gradientColor=none;strokeColor=none;" vertex="1" parent="rNCbH9uXFi6r2xRvdt5K-11">
          <mxGeometry x="21" y="14" width="8.995" height="10" as="geometry" />
        </mxCell>
        <mxCell id="rNCbH9uXFi6r2xRvdt5K-16" value="" style="group;strokeWidth=2;" vertex="1" connectable="0" parent="1">
          <mxGeometry x="154" y="410" width="20" height="20" as="geometry" />
        </mxCell>
        <mxCell id="rNCbH9uXFi6r2xRvdt5K-17" value="" style="rounded=0;whiteSpace=wrap;html=1;strokeWidth=2;" vertex="1" parent="rNCbH9uXFi6r2xRvdt5K-16">
          <mxGeometry width="20" height="20" as="geometry" />
        </mxCell>
        <mxCell id="rNCbH9uXFi6r2xRvdt5K-18" value="" style="pointerEvents=1;verticalLabelPosition=bottom;shadow=0;dashed=0;align=center;html=1;verticalAlign=top;shape=mxgraph.electrical.waveforms.square_wave;strokeWidth=2;" vertex="1" parent="rNCbH9uXFi6r2xRvdt5K-16">
          <mxGeometry x="5" y="5" width="10" height="10" as="geometry" />
        </mxCell>
        <mxCell id="rNCbH9uXFi6r2xRvdt5K-19" style="edgeStyle=orthogonalEdgeStyle;rounded=0;orthogonalLoop=1;jettySize=auto;html=1;exitX=1;exitY=0.5;exitDx=0;exitDy=0;entryX=0;entryY=0.75;entryDx=0;entryDy=0;entryPerimeter=0;endArrow=none;startFill=0;strokeWidth=2;" edge="1" parent="1" source="rNCbH9uXFi6r2xRvdt5K-17" target="rNCbH9uXFi6r2xRvdt5K-12">
          <mxGeometry relative="1" as="geometry" />
        </mxCell>
        <mxCell id="rNCbH9uXFi6r2xRvdt5K-20" style="edgeStyle=orthogonalEdgeStyle;rounded=0;orthogonalLoop=1;jettySize=auto;html=1;exitX=1;exitY=0.5;exitDx=0;exitDy=0;entryX=0;entryY=0.75;entryDx=0;entryDy=0;entryPerimeter=0;endArrow=none;startFill=0;strokeWidth=2;" edge="1" parent="1" source="rNCbH9uXFi6r2xRvdt5K-17" target="rNCbH9uXFi6r2xRvdt5K-2">
          <mxGeometry relative="1" as="geometry">
            <Array as="points">
              <mxPoint x="374" y="420" />
              <mxPoint x="374" y="360" />
            </Array>
          </mxGeometry>
        </mxCell>
        <mxCell id="rNCbH9uXFi6r2xRvdt5K-21" style="edgeStyle=orthogonalEdgeStyle;rounded=0;orthogonalLoop=1;jettySize=auto;html=1;exitX=1;exitY=0.5;exitDx=0;exitDy=0;entryX=0;entryY=0.75;entryDx=0;entryDy=0;entryPerimeter=0;endArrow=none;startFill=0;strokeWidth=2;" edge="1" parent="1" source="rNCbH9uXFi6r2xRvdt5K-17" target="rNCbH9uXFi6r2xRvdt5K-7">
          <mxGeometry relative="1" as="geometry">
            <Array as="points">
              <mxPoint x="554" y="420" />
              <mxPoint x="554" y="360" />
            </Array>
          </mxGeometry>
        </mxCell>
        <mxCell id="rNCbH9uXFi6r2xRvdt5K-23" value="" style="verticalLabelPosition=bottom;shadow=0;dashed=0;align=center;html=1;verticalAlign=top;shape=mxgraph.electrical.logic_gates.logic_gate;operation=and;strokeWidth=2;" vertex="1" parent="1">
          <mxGeometry x="514" y="306" width="50" height="28" as="geometry" />
        </mxCell>
        <mxCell id="rNCbH9uXFi6r2xRvdt5K-24" style="edgeStyle=orthogonalEdgeStyle;rounded=0;orthogonalLoop=1;jettySize=auto;html=1;exitX=1;exitY=0.5;exitDx=0;exitDy=0;exitPerimeter=0;entryX=0;entryY=0.25;entryDx=0;entryDy=0;entryPerimeter=0;endArrow=none;startFill=0;strokeWidth=2;" edge="1" parent="1" source="rNCbH9uXFi6r2xRvdt5K-23" target="rNCbH9uXFi6r2xRvdt5K-7">
          <mxGeometry relative="1" as="geometry" />
        </mxCell>
        <mxCell id="rNCbH9uXFi6r2xRvdt5K-26" value="" style="group;strokeWidth=2;" vertex="1" connectable="0" parent="1">
          <mxGeometry x="154" y="310" width="20" height="20" as="geometry" />
        </mxCell>
        <mxCell id="rNCbH9uXFi6r2xRvdt5K-27" value="1" style="rounded=0;whiteSpace=wrap;html=1;strokeWidth=2;" vertex="1" parent="rNCbH9uXFi6r2xRvdt5K-26">
          <mxGeometry width="20" height="20" as="geometry" />
        </mxCell>
        <mxCell id="rNCbH9uXFi6r2xRvdt5K-28" style="edgeStyle=orthogonalEdgeStyle;rounded=0;orthogonalLoop=1;jettySize=auto;html=1;exitX=1;exitY=0.5;exitDx=0;exitDy=0;entryX=0;entryY=0.25;entryDx=0;entryDy=0;entryPerimeter=0;endArrow=none;startFill=0;strokeWidth=2;" edge="1" parent="1" source="rNCbH9uXFi6r2xRvdt5K-27" target="rNCbH9uXFi6r2xRvdt5K-12">
          <mxGeometry relative="1" as="geometry" />
        </mxCell>
        <mxCell id="rNCbH9uXFi6r2xRvdt5K-30" style="edgeStyle=orthogonalEdgeStyle;rounded=0;orthogonalLoop=1;jettySize=auto;html=1;exitX=1;exitY=0.75;exitDx=0;exitDy=0;exitPerimeter=0;entryX=0;entryY=0.25;entryDx=0;entryDy=0;entryPerimeter=0;endArrow=none;startFill=0;strokeWidth=2;" edge="1" parent="1" source="rNCbH9uXFi6r2xRvdt5K-2" target="rNCbH9uXFi6r2xRvdt5K-23">
          <mxGeometry relative="1" as="geometry">
            <Array as="points">
              <mxPoint x="500" y="360" />
              <mxPoint x="500" y="313" />
            </Array>
          </mxGeometry>
        </mxCell>
        <mxCell id="rNCbH9uXFi6r2xRvdt5K-31" style="edgeStyle=orthogonalEdgeStyle;rounded=0;orthogonalLoop=1;jettySize=auto;html=1;exitX=1;exitY=0.75;exitDx=0;exitDy=0;exitPerimeter=0;entryX=0;entryY=0.75;entryDx=0;entryDy=0;entryPerimeter=0;endArrow=none;startFill=0;strokeWidth=2;" edge="1" parent="1" source="rNCbH9uXFi6r2xRvdt5K-12" target="rNCbH9uXFi6r2xRvdt5K-23">
          <mxGeometry relative="1" as="geometry">
            <Array as="points">
              <mxPoint x="330" y="360" />
              <mxPoint x="330" y="390" />
              <mxPoint x="510" y="390" />
              <mxPoint x="510" y="327" />
            </Array>
          </mxGeometry>
        </mxCell>
        <mxCell id="rNCbH9uXFi6r2xRvdt5K-32" style="edgeStyle=orthogonalEdgeStyle;rounded=0;orthogonalLoop=1;jettySize=auto;html=1;exitX=1;exitY=0.75;exitDx=0;exitDy=0;exitPerimeter=0;entryX=0;entryY=0.25;entryDx=0;entryDy=0;entryPerimeter=0;endArrow=none;startFill=0;strokeWidth=2;" edge="1" parent="1" source="rNCbH9uXFi6r2xRvdt5K-12" target="rNCbH9uXFi6r2xRvdt5K-2">
          <mxGeometry relative="1" as="geometry" />
        </mxCell>
      </root>
    </mxGraphModel>
  </diagram>
</mxfile>
